<svg id="client-logos" class="d-none">
	<defs>
		
		<g id="mcdonalds">
			<path d="M132.33,5.7C138.19,5.7,143,30.43,143,60.92h8.49c0-32.84-8.56-59.47-19.11-59.47-6,0-11.37,8-14.87,20.52C114,9.46,108.6,1.45,102.59,1.45,92,1.45,83.48,28.08,83.48,60.92H92C92,30.43,96.73,5.7,102.59,5.7s10.62,22.82,10.62,51h8.5c0-28.16,4.75-51,10.62-51"/>
		</g>

		<g id="workings">
			<path d="M70.33,49.4q-.19,0-.24-.24L64.39,16c0-.13,0-.19.14-.19h5.41a.24.24,0,0,1,.25.19L73.28,37.8,76.47,16c0-.13.13-.19.29-.19h4.35a.23.23,0,0,1,.24.19L84.49,37.8,87.63,16a.22.22,0,0,1,.24-.19h5.36c.17,0,.23.06.2.19l-5.75,33.2a1,1,0,0,1-.24.24H81.59q-.15,0-.24-.24L78.88,31.81,76.42,49.16q0,.24-.24.24Z"/>
			<path d="M104.5,49.88a8.86,8.86,0,0,1-4.76-1.33A10.2,10.2,0,0,1,96.29,45,9.37,9.37,0,0,1,95,40.17l0-15.32A9.38,9.38,0,0,1,96.31,20a9.86,9.86,0,0,1,3.46-3.48,9,9,0,0,1,4.73-1.3,8.89,8.89,0,0,1,4.74,1.3,9.94,9.94,0,0,1,3.4,3.48,9.28,9.28,0,0,1,1.28,4.83l0,15.32A9.44,9.44,0,0,1,112.69,45a10,10,0,0,1-3.43,3.52A8.83,8.83,0,0,1,104.5,49.88Zm0-5.85A3.35,3.35,0,0,0,107,42.85a3.88,3.88,0,0,0,1.09-2.68l0-15.32a3.85,3.85,0,0,0-1-2.7A3.32,3.32,0,0,0,104.5,21a3.47,3.47,0,0,0-2.56,1.09,3.76,3.76,0,0,0-1.06,2.73V40.17a3.85,3.85,0,0,0,1.06,2.73A3.36,3.36,0,0,0,104.5,44Z"/>
			<path d="M117.22,49.4c-.12,0-.19-.08-.19-.24l.1-33.2a.17.17,0,0,1,.19-.19h9.76a9.44,9.44,0,0,1,4.81,1.28,9.75,9.75,0,0,1,3.5,3.43,9.16,9.16,0,0,1,1.31,4.85,9.25,9.25,0,0,1-.53,3.22A10.26,10.26,0,0,1,134.91,31a8.16,8.16,0,0,1-1.31,1.48,9.84,9.84,0,0,1,2.61,6.81l0,9.91a.21.21,0,0,1-.24.24h-5.46c-.13,0-.19,0-.19-.15v-10a4.21,4.21,0,0,0-1.23-3,4.06,4.06,0,0,0-3-1.28h-3.19l-.05,14.21c0,.16-.07.24-.2.24Zm5.71-20.25h4.15A3.73,3.73,0,0,0,129.74,28a3.61,3.61,0,0,0,1.16-2.71,3.57,3.57,0,0,0-1.14-2.65,3.69,3.69,0,0,0-2.68-1.11h-4.15Z"/>
			<path d="M139.75,49.4c-.13,0-.2-.08-.2-.24l.1-33.15c0-.16.06-.24.19-.24h5.41c.13,0,.2.08.2.24V27.46L153,16a.42.42,0,0,1,.34-.19h5.56c.13,0,.16.06.1.19L150.67,29.3,160,49.2c.06.13,0,.2-.24.2h-5.9a.27.27,0,0,1-.29-.2L147.09,35l-1.69,2.66v11.5c0,.16-.07.24-.19.24Z"/>
			<path d="M162.46,49.4c-.17,0-.25-.08-.25-.24l0-33.2c0-.13.07-.19.2-.19h5.41a.17.17,0,0,1,.19.19l.05,33.2c0,.16-.07.24-.19.24Z"/>
			<path d="M172.11,49.4c-.26,0-.39-.11-.39-.34l-.05-32.91a.34.34,0,0,1,.39-.38h4.35l8.16,19-.24-18.66c0-.25.14-.38.43-.38h4.79c.19,0,.29.13.29.38l0,33c0,.19-.08.29-.24.29h-4.26L177,31.62,177.37,49c0,.26-.14.39-.43.39Z"/>
			<path d="M202.39,49.88a8.83,8.83,0,0,1-4.73-1.3,9.81,9.81,0,0,1-3.41-3.51,9.58,9.58,0,0,1-1.28-4.9V24.85A9.44,9.44,0,0,1,194.25,20a9.83,9.83,0,0,1,3.43-3.5,8.89,8.89,0,0,1,4.71-1.3,9.16,9.16,0,0,1,4.81,1.28A9.48,9.48,0,0,1,210.61,20a9.66,9.66,0,0,1,1.25,4.88v2.22c0,.13-.08.2-.24.2h-5.41c-.13,0-.19-.07-.19-.2V25.24a4.53,4.53,0,0,0-1-3,3.32,3.32,0,0,0-5.08,0,3.83,3.83,0,0,0-1.08,2.7V40.17a3.85,3.85,0,0,0,1.06,2.73A3.31,3.31,0,0,0,202.39,44,3.42,3.42,0,0,0,205,42.92a3.89,3.89,0,0,0,1-2.75V37.8h-3.39a.21.21,0,0,1-.24-.24V32.15a.21.21,0,0,1,.24-.24h9c.13,0,.19.08.19.24v8a9.58,9.58,0,0,1-1.28,4.9,9.81,9.81,0,0,1-3.41,3.51A8.93,8.93,0,0,1,202.39,49.88Z"/>
			<path d="M223.51,49.88a8.83,8.83,0,0,1-4.76-1.33A9.89,9.89,0,0,1,215.32,45,9.44,9.44,0,0,1,214,40.17V38a.22.22,0,0,1,.24-.25h5.41c.13,0,.19.09.19.25v2.22A3.86,3.86,0,0,0,221,42.9,3.36,3.36,0,0,0,223.51,44a3.33,3.33,0,0,0,2.56-1.16,3.85,3.85,0,0,0,1.06-2.7c0-1.19-.77-2.22-2.32-3.09l-2.41-1.36L219.3,34a10.07,10.07,0,0,1-3.93-3.89,10.76,10.76,0,0,1-1.29-5.29A9.16,9.16,0,0,1,215.39,20a9.71,9.71,0,0,1,3.45-3.41,9.09,9.09,0,0,1,4.67-1.26,9,9,0,0,1,4.71,1.29A9.64,9.64,0,0,1,231.65,20a9.22,9.22,0,0,1,1.28,4.8v4a.17.17,0,0,1-.19.19h-5.41a.18.18,0,0,1-.2-.19l0-4A3.72,3.72,0,0,0,226,22.05a3.48,3.48,0,0,0-5.07.07,3.8,3.8,0,0,0-1.07,2.68,4.86,4.86,0,0,0,.68,2.66,6.46,6.46,0,0,0,2.46,2c.17.1.48.27.95.51s1,.51,1.52.82,1,.57,1.47.8.7.37.8.43a11.62,11.62,0,0,1,3.82,3.31,8.09,8.09,0,0,1,1.4,4.81,9.63,9.63,0,0,1-4.71,8.43A9.18,9.18,0,0,1,223.51,49.88Z"/>
			<path d="M41,26.32l-6.78,5.54-10.6-10L12.88,32.08,5.69,26.37V48.94H41ZM23.67,25l8.85,8.3-3.11,2.54-5.75-5.4L17.79,36l-3.14-2.48Zm4,12.27-4.07,3.33-4-3.2,4.11-3.89ZM7.92,31l3.32,2.64L7.92,36.77Zm0,8.85L13,35l3.13,2.48L7.92,45.29ZM9.68,46.7l8.23-7.77,3.9,3.1L16.1,46.7Zm10,0,4-3.25L27.7,46.7Zm11.66,0L25.38,42l3.93-3.21,8.42,7.91Zm7.5-2.07-7.74-7.27,3.1-2.53,4.64,4.35Zm0-8.52L35.91,33.4,38.8,31Z"/>
			<path d="M23.37,20a3.74,3.74,0,1,0-3.74-3.73A3.74,3.74,0,0,0,23.37,20Zm0-5.23a1.5,1.5,0,1,1-1.5,1.5A1.5,1.5,0,0,1,23.37,14.73Z"/>
			<path d="M37.32,21.47a3.74,3.74,0,1,0,3.73-3.73A3.73,3.73,0,0,0,37.32,21.47ZM41.05,20a1.5,1.5,0,1,1,0,3,1.5,1.5,0,0,1,0-3Z"/>
			<path d="M5.67,25.2a3.73,3.73,0,1,0-3.73-3.73A3.73,3.73,0,0,0,5.67,25.2Zm0-5.23a1.5,1.5,0,1,1-1.5,1.5A1.5,1.5,0,0,1,5.67,20Z"/>
		</g>

		<g id="banistmo">
			<path d="M18.39,60.52c-1.86,0-5.09-.09-9-.09V29.1C12,29,16,28.87,19.8,28.87c6.64,0,10.32,2.74,10.32,7.76a7.56,7.56,0,0,1-4.86,7v.09a6.91,6.91,0,0,1,5.45,7c0,4.56-3,9.77-12.32,9.77m.41-26.77c-1.23,0-2.41,0-3.46.09V42c.73,0,1.46,0,2.42,0,4,0,6.13-1.68,6.13-4.47,0-2.33-1.36-3.85-5.09-3.85m-.87,12.82c-.45,0-1.95,0-2.59,0v8.79a27.37,27.37,0,0,0,3.23.18c3.86,0,5.82-1.86,5.82-4.69,0-3.07-2.59-4.33-6.46-4.33"/>
			<path d="M46.38,60.48a29.06,29.06,0,0,1,.24-4.15l0,0A8,8,0,0,1,39,60.92c-4.3,0-6.78-2.49-6.78-6.39,0-5.81,5.63-8.89,13.7-8.89V44.32c0-2.53-1.19-3.85-4.63-3.85a15.34,15.34,0,0,0-7,1.9l-.52-5.22a25.33,25.33,0,0,1,8.49-1.52c7.64,0,9.79,3.14,9.79,8.45l.19,16.34ZM45.9,49.69c-6.45,0-7.88,1.9-7.88,3.86a2.51,2.51,0,0,0,2.82,2.58c3,0,5.06-2.93,5.06-5.85Z"/>
			<path d="M178,60.91c-6.72,0-11.07-3.55-11.07-12.19,0-7.57,4.92-13,12.13-13,6.73,0,11.07,3.81,11.07,12.16,0,7.62-5,13.07-12.13,13.07m.64-20c-2.73,0-5.41,2.16-5.41,7.13s1.77,7.51,5.31,7.51c3,0,5.3-2.47,5.3-7.41,0-4.68-1.63-7.23-5.2-7.23"/>
			<path d="M86.23,60.43h-6.5V36.27a28.64,28.64,0,0,1,6.5-.15ZM83.17,33.05a3.78,3.78,0,0,1,0-7.56A3.76,3.76,0,0,1,87,29.24a3.81,3.81,0,0,1-3.81,3.81"/>
			<path d="M69.12,35.63A8.68,8.68,0,0,0,61,40.52l0-.05.16-4.34a19,19,0,0,0-5.66,1.31v23h6.16V48.72c0-4.25,2.44-7.86,5.55-7.86,2.23,0,2.91,1.51,2.91,4V60.43h6.06v-17c0-4.25-1.72-7.77-7.06-7.77"/>
			<path d="M156.94,35.51a8.4,8.4,0,0,0-7.73,4.89c-.57-2.35-2.34-4.89-6.54-4.89a8.48,8.48,0,0,0-7.83,4.89h-.05a42,42,0,0,0,.29-4.38,18.48,18.48,0,0,0-5.79,1.43V60.31h6.13V48.7c0-4.54,2.62-8,5.44-8,2.34,0,2.82,1.8,2.82,4.19V60.31h6V48.7c0-4.74,2.77-8,5.44-8,2.24,0,2.83,1.61,2.83,4.19V60.31h6.11V43.61c0-5.51-2.54-8.1-7.13-8.1"/>
			<path d="M100.71,43.3c-.3-1.67-.86-2.87-2.74-2.87a2.52,2.52,0,0,0-2.57,2.66c0,4.11,11.6,1.11,11.6,10.1,0,5.09-4.24,7.58-9.12,7.58s-8.69-2.67-8.69-8h6c.13,1.71,1,3.34,3,3.34,1.59,0,3.09-.73,3.09-2.57,0-4.19-11.61-.77-11.61-10.1,0-4.84,4.16-7.66,8.82-7.66,4.2,0,8.31,3,8.31,7.53Z"/>
			<path d="M119.75,51.93l0-11.16H126V35.69h-6.23V25.46l-.12,0,0,0a20.89,20.89,0,0,0-6.26,1.46v8.77h-5.14v5.09h5.14V52.05c0,5.81,3.66,8.28,8,8.28a17.55,17.55,0,0,0,5-1V53.87A6.27,6.27,0,0,1,123.07,55a2.83,2.83,0,0,1-3.32-3.08"/>
			<path d="M225.35,29a1.66,1.66,0,0,1-1,2.32c-1.38.56-2.4.93-4.1,1.6l-2.67,1c-.94.35-1.9.73-3,1.13-4.19,1.6-8.95,3.39-14.88,5.58a2.36,2.36,0,0,1-3-1.59c-1-3.11-2.07-6.13-3.15-8.94a2.12,2.12,0,0,1,1.46-2.83c3-.85,5.71-1.52,8.33-2.16s4.89-1.18,7.08-1.66c4.39-1,7.21-1.6,10.22-2.13a1.85,1.85,0,0,1,2.36,1.29c.85,2.08,1.6,4.17,2.3,6.36"/>
			<path d="M222.53,11.93c-.41-.82-.78-1.3-2.29-1.33a96.69,96.69,0,0,0-16.47,1.32c-3.69.54-7.68,1.31-12,2.39-2.18.57-4.34,1.12-6.54,1.87s-4.41,1.47-6.56,2.3a2.54,2.54,0,0,0-1.82,2.63c.55,2.28,1.12,4.57,1.8,7.21.32,1.15,1.64,1.67,3,1.14,4.81-1.82,9.83-3.4,14.53-4.67s8.75-2.17,12.45-3c7.34-1.6,11.18-2.11,15.12-2.8.89-.16,1.29-.74.89-1.71Z"/>
			<path d="M217.58,2.9a2.11,2.11,0,0,0-1.85-1.16,69.08,69.08,0,0,0-14.11.19,81.34,81.34,0,0,0-8.23,1.17c-2.91.58-5.83,1.24-8.9,2.14-1,.32-1.65.92-1.25,2.1.55,1.6,1,3,1.68,4.84.43,1.25,1.51,1.26,2.65.92,3.42-1,6.67-1.79,9.85-2.41s6-1,8.74-1.41a120.76,120.76,0,0,1,12.72-.83c.6,0,1-.55.55-1.26Z"/>
		</g>

		<g id="u-del-istmo">
			<polygon points="12.66 12.29 12.66 12.3 12.66 12.3 12.66 12.29"/>
			<path d="M28.92,34l7.13,7.16a22.41,22.41,0,0,0,.65-6.26V12.3H28.92Z"/>
			<path d="M22,43.56c-3.1,0-5.12-1-6-3.1a12.76,12.76,0,0,1-.89-5.54V30.79L7.31,23v12c0,3.91.61,7,1.81,9.14q3.41,6,12.9,6,6.15,0,9.73-2.52l-5.19-5.23A7.4,7.4,0,0,1,22,43.56"/>
			<polygon points="15.09 12.3 7.32 12.3 15.09 20.12 15.09 12.3"/>
			<path d="M60.3,14.18H51.49V48.47H60.3c9.39,0,12.46-8.23,12.46-17.14S69.69,14.18,60.3,14.18m0,28.17H57.82v-22H60.3c4.33,0,6.13,4.85,6.13,11s-1.8,11-6.13,11"/>
			<path d="M85.66,20.25C78.94,20.25,75,25.94,75,34.75S78.7,49,85.66,49c4.82,0,7.64-2,10-5.54L91.21,39.6c-1.07,2.26-2.53,3.77-4.72,3.77-3.8,0-5-3-5.21-6.75H95.74V35c0-7.3-1.46-14.75-10.08-14.75M81.33,32.06c.34-3.53,1.51-6.71,4.62-6.71,2.68,0,3.65,3.13,3.75,6.71Z"/>
			<rect x="99.14" y="12.71" width="6.33" height="35.76"/>
			<rect x="120.16" y="14.18" width="6.33" height="34.29"/>
			<path d="M141.44,31.08c-2.34-.88-3.9-1.77-3.9-3.18a2.64,2.64,0,0,1,2.82-2.41,5.77,5.77,0,0,1,5.31,3.14l4.19-3.87a11.21,11.21,0,0,0-9.3-4.51c-6.38,0-9.2,4.36-9.2,7.94,0,5.05,4.43,7.1,8.23,8.57,2.53,1,4.67,2.11,4.67,3.92,0,1.47-1.12,2.6-3.12,2.6-2.67,0-5-2-6.32-4.12l-4.44,4.41A12.47,12.47,0,0,0,140.85,49c6.13,0,9.45-3.43,9.45-8.87,0-5.14-5.06-7.59-8.86-9"/>
			<path d="M164.07,43a2.82,2.82,0,0,1-2.82-3.13V26.18h5.31V20.74h-5.31v-8h-6.33v8h-2.87v5.44h2.87V40.44c0,5.53,2.14,8.52,7.94,8.52a17.78,17.78,0,0,0,4.23-.44l-1-6a3.55,3.55,0,0,1-2,.49"/>
			<path d="M196,20.26c-3.07,0-5,1.17-6.62,3.87h-.1c-.87-2.36-3.12-3.87-6.38-3.87-2.77,0-4.57,1.12-6.23,3.47h-.1a16.71,16.71,0,0,0-.72-3H170.3a11.8,11.8,0,0,1,.54,4V48.47h6.28V30.69c0-2.6,1.12-4.85,3.55-4.85,1.71,0,3.07,1.08,3.07,3.82V48.47h6.33V30.69c0-2.6,1.12-4.85,3.55-4.85,1.71,0,3.07,1.08,3.07,3.82V48.47H203v-19c0-5.33-1.46-9.2-7.06-9.2"/>
			<path d="M216.75,20.26c-7.45,0-10.81,5.58-10.81,14.3S209.3,49,216.75,49s10.85-5.59,10.85-14.4-3.36-14.3-10.85-14.3m0,23c-3.61,0-4.43-4.66-4.43-8.67,0-4.26.82-8.62,4.43-8.62s4.47,4.36,4.47,8.62c0,4.45-.78,8.67-4.47,8.67"/>
		</g>

		<g id="multiplaza">
			<polygon points="2.66 22.25 2.66 39.74 4.55 39.74 4.55 26.83 10.87 33.13 17.19 26.83 17.19 39.74 19.07 39.74 19.07 22.25 10.87 30.46 2.66 22.25"/>
			<path d="M38.88,33.71a4.45,4.45,0,0,1-1.32,3.21,4.43,4.43,0,0,1-6.35,0,4.49,4.49,0,0,1-1.32-3.21V23.33H28V33.71a6.39,6.39,0,0,0,10.9,4.52,6.18,6.18,0,0,0,1.87-4.52V23.33H38.88Z"/>
			<polygon points="51.59 23.33 49.7 23.33 49.7 39.74 61.02 39.74 61.02 37.85 51.59 37.85 51.59 23.33"/>
			<polygon points="65.53 25.22 70.96 25.22 70.96 39.74 72.84 39.74 72.84 25.22 78.27 25.22 78.27 23.33 65.53 23.33 65.53 25.22"/>
			<rect x="86.24" y="23.33" width="1.89" height="16.41"/>
			<path d="M141.89,23.33h-7.14V39.74h1.89V34h5.25a5.31,5.31,0,0,0,3.74-9.06,5.11,5.11,0,0,0-3.74-1.56m0,8.73h-5.25V25.22h5.25a3.23,3.23,0,0,1,2.38,1,3.48,3.48,0,0,1,0,4.84,3.23,3.23,0,0,1-2.38,1"/>
			<polygon points="157.46 23.33 155.58 23.33 155.58 39.74 166.9 39.74 166.9 37.85 157.46 37.85 157.46 23.33"/>
			<path d="M174.23,39.74h2.05l1.49-3.64h7.35l1.52,3.64h2.05l-7.23-17.53Zm7.23-12.57,2.91,7.06h-5.82Z"/>
			<polygon points="196.85 23.33 196.85 25.22 206.75 25.22 195.99 39.74 209.64 39.74 209.64 37.85 199.76 37.85 210.49 23.33 196.85 23.33"/>
			<path d="M225,22.21,217.8,39.74h2l1.49-3.64h7.35l1.51,3.64h2.05Zm0,5,2.91,7.06h-5.82Z"/>
			<polygon points="111.33 20.5 98.93 10.96 98.93 30.3 105.26 30.3 105.26 23.88 105.44 23.88 111.33 28.56 111.33 20.5"/>
			<polygon points="111.33 20.5 111.33 20.5 111.33 28.56 111.33 28.56 117.23 23.88 117.41 23.88 117.41 30.3 123.73 30.3 123.73 10.96 111.33 20.5"/>
			<polygon points="111.33 41.88 98.93 51.42 98.93 32.08 105.26 32.08 105.26 38.5 105.44 38.5 111.33 33.82 111.33 41.88"/>
			<polygon points="111.33 41.88 111.33 41.88 111.33 33.82 111.33 33.82 117.23 38.5 117.41 38.5 117.41 32.08 123.73 32.08 123.73 51.42 111.33 41.88"/>
		</g>

		<g id="digicel">
			<path d="M32,12.36h7.24c8.36,0,13.15,4.81,13.15,13.19S47.45,38.74,39.21,38.74H32ZM39.3,3.54H22.6v44H39.3c6.74,0,12.47-2.08,16.57-6s6.27-9.47,6.27-16-2.17-12-6.27-16-9.83-6-16.57-6"/>
			<path d="M70.81,1.87a5.47,5.47,0,0,0-5.5,5.57,5.52,5.52,0,0,0,11,0,5.5,5.5,0,0,0-5.54-5.57"/>
			<rect x="66.45" y="16.86" width="8.82" height="30.69"/>
			<path d="M96,39.2c-4.15,0-7.17-3.14-7.17-7.47s3-7.5,7.17-7.5,7.13,3.08,7.13,7.5-3,7.47-7.13,7.47m6.85-19.62a11.93,11.93,0,0,0-8.89-3.52A13.55,13.55,0,0,0,84,20.37a16.34,16.34,0,0,0-4.26,11.36A16.28,16.28,0,0,0,84,43.06a13.55,13.55,0,0,0,9.9,4.31,11.77,11.77,0,0,0,8.83-3.44v1.12c0,4.73-3.05,7.56-8.15,7.56a17.4,17.4,0,0,1-9.68-3l-.38-.25-3.17,7.27.25.18c3.26,2.3,8.25,3.68,13.32,3.68,10.2,0,16.53-6,16.53-15.79V16.86h-8.66Z"/>
			<path d="M122,1.87a5.48,5.48,0,0,0-5.51,5.57,5.52,5.52,0,0,0,11,0A5.49,5.49,0,0,0,122,1.87"/>
			<rect x="117.64" y="16.86" width="8.82" height="30.69"/>
			<path d="M153.45,37.16a8.38,8.38,0,0,1-6.25,2.91c-4.11,0-7.1-3.32-7.1-7.88s3-7.87,7.13-7.87a8,8,0,0,1,6.13,2.88l.24.26L160,22.15l-.22-.29a15,15,0,0,0-12.29-5.8c-9.61,0-16.32,6.63-16.32,16.13s6.71,16.14,16.32,16.14a15.21,15.21,0,0,0,12.32-5.77l.22-.29-6.3-5.38Z"/>
			<path d="M212.32,47.18a28.92,28.92,0,0,1-4.7.37c-8.32,0-11.08-4.28-11.08-11.61V3.54h8.76V35c0,3.37,1,4.54,3.75,4.76a15.72,15.72,0,0,0,3.27-.13Z"/>
			<path d="M177.41,23.76c3.13,0,5.26,1.86,6.06,5.25H171.14c.59-2.5,2.16-5.25,6.27-5.25M185.57,38a11.74,11.74,0,0,1-7.23,2.7c-3.8,0-6.35-1.93-7.22-5.45H192.2l.05-.33a24.24,24.24,0,0,0,.16-2.77,16.86,16.86,0,0,0-4.16-11.62,14.25,14.25,0,0,0-10.77-4.48,15.05,15.05,0,0,0-11.21,4.51A16.52,16.52,0,0,0,162,32.28a16,16,0,0,0,4.44,11.64,15.81,15.81,0,0,0,11.48,4.41,19,19,0,0,0,11-3.06A14.8,14.8,0,0,0,191.4,43Z"/>
		</g>

		<g id="nequi">
			<path d="M233.27,16.56a1,1,0,0,0-1-1l-3.24,0a1,1,0,0,0-1,1l-.2,32a1,1,0,0,0,1,1l3.24,0a1,1,0,0,0,1-1Z"/>
			<path d="M100,14.77l-3.14,0a1,1,0,0,0-1,1L95.7,38.18,74.53,15.08a1.25,1.25,0,0,0-1-.46l-1.09,0a1,1,0,0,0-.95.92l-.19,30.65v1.36a1,1,0,0,0,.92,1l3.19,0a1,1,0,0,0,1-1l.11-23L98.36,48.27s.43.41.67.41h.69a1,1,0,0,0,1-.92l0-.58.19-31.43a1,1,0,0,0-.94-1"/>
			<path d="M130.67,48.88H132a1,1,0,0,0,1-1l0-2.9a1,1,0,0,0-1-1L123.25,44h0l-3.82,0,.07-10.53h.72l11.91.07a1,1,0,0,0,1-1l0-2.9a1,1,0,0,0-1-1h-.49l-12.14-.08,0-8.89,12.62.07a1,1,0,0,0,1-1l0-2.89a1,1,0,0,0-1-1l-8.81-.05-8-.05a1,1,0,0,0-1,1l-.2,32a1,1,0,0,0,1,1l15.47.1Z"/>
			<path d="M214.55,16.44a1,1,0,0,0-.94-1l-3.18,0a1,1,0,0,0-1,.94l-.1,19.07c0,3-.28,4.35-1.08,5.74a7.39,7.39,0,0,1-12.44-.08c-.79-1.4-1-2.8-1-5.75L195,16.31a1,1,0,0,0-.94-.95l-3.18,0a.93.93,0,0,0-.95.94l-.11,20.42a11.78,11.78,0,0,0,2.49,7.86,12.49,12.49,0,0,0,19.53.12,11.87,11.87,0,0,0,2.59-7.83Z"/>
			<path d="M170.36,46.48a17.08,17.08,0,0,1-9.11,2.59,17.58,17.58,0,0,1-12.87-5.9,16,16,0,0,1-4-11,17,17,0,1,1,34.07.5,15.12,15.12,0,0,1-4.71,11.18m-3.4-3.49a10.84,10.84,0,0,0,3.18-8.06,12.09,12.09,0,0,0-12.1-12.46c-6.94,0-12.06,5.22-12.1,12.41a11.37,11.37,0,0,0,3.46,8.68A11.9,11.9,0,0,0,166.91,43"/>
			<path d="M177.68,47.76c.77.78.51,1.41-.59,1.4l-3.38,0a2.29,2.29,0,0,1-1.4-.59l-11-11a1.17,1.17,0,0,1,.83-2l2.53,0a2.35,2.35,0,0,1,1.4.59Z"/>
			<path d="M28.84,57.4l-.38,0a5.23,5.23,0,0,1-3.75-2L4.4,27.71A7.15,7.15,0,0,1,3.19,21.8a7.47,7.47,0,0,1,3.94-4.89L29.94,5.39A3.89,3.89,0,0,1,31.67,5a3.72,3.72,0,0,1,2.78,1.25L53.86,28.31a3.76,3.76,0,0,1-.09,5.08L32.5,55.93A5.26,5.26,0,0,1,28.84,57.4ZM31.65,5.7A3,3,0,0,0,30.27,6L7.45,17.55A6.73,6.73,0,0,0,3.89,22,6.44,6.44,0,0,0,5,27.28L25.29,55a4.49,4.49,0,0,0,3.22,1.67A4.59,4.59,0,0,0,32,55.43L53.25,32.9a3,3,0,0,0,.07-4.11L33.91,6.7a3,3,0,0,0-2.24-1Z"/>
			<path d="M49.7,18.23,21.94,6.82a3.62,3.62,0,0,0-1.29-.26,3.37,3.37,0,0,0-2.71,1.33l-4.72,6.34h0L6.07,23.84,3,28A6.89,6.89,0,0,0,5.54,38.25l31.23,16a4.87,4.87,0,0,0,6.69-2.68l3.19-11.21h0l2.19-7.66,3-10.38A3.48,3.48,0,0,0,49.7,18.23Z"/>
		</g>

		<g id="titan">
			<rect x="166.15" y="23.1" width="18.34" height="36.68"/>
			<path d="M186.85,23.1h0V59.78h18.34V41.44A18.34,18.34,0,0,0,186.85,23.1"/>
			<path d="M86.2,20.72a8,8,0,1,0-8-8,8,8,0,0,0,8,8"/>
			<path d="M77.05,41.44h0A18.34,18.34,0,0,0,95.38,59.78V23.1H77.05Z"/>
			<path d="M119.34,4.73,103.44,18l-6.1,5.08H101V41.44a18.34,18.34,0,0,0,18.34,18.34V23.14H123V19.47h-3.67Z"/>
			<path d="M75.54,4.72l-27.71,0a18.26,18.26,0,0,0-15.89,9.46,19.06,19.06,0,0,0-2.22,6.53l17.39,0V41.44A18.34,18.34,0,0,0,65.44,59.78V20.69l10.13,0Z"/>
			<path d="M123,50.61a9.17,9.17,0,0,0,9.16,9.17h9.17V41.44h-9.17A9.16,9.16,0,0,0,123,50.61"/>
			<path d="M143.73,23.1V59.78h18.33V41.44A18.34,18.34,0,0,0,143.73,23.1"/>
			<path d="M152.9,2.6a9.11,9.11,0,0,0-9.14,8.77v9.39h9.14a9.08,9.08,0,1,0,0-18.16"/>
			<path d="M133.39,23.1a8,8,0,1,0,8,8,8,8,0,0,0-8-8"/>
		</g>

		<g id="nike">
			<path d="M56.13,4.15c-14.77,17.34-28.7,40.42-16.39,51,11.92,10.3,26.83,4.2,37,.14S199.21,2.49,199.21,2.49c1.09-.55.88-1.22-.47-.88-.55.13-122.28,33.12-122.28,33.12C61,39.07,43.4,29.62,56.13,4.15Z"/>
		</g>

	</defs>
</svg>