<svg id="Layer_1" data-name="Layer 1" xmlns="http://www.w3.org/2000/svg" viewBox="0 0 524 64"><defs><style>.cls-1{fill:#1a1414;}</style></defs><path class="cls-1" d="M126.5,62V2.83h16.21L158,24.42,173.24,2.83h16V62H172.42V42.74c0-4.66.08-9.82.16-13.9l-.16-.09c-2.46,3.77-5.16,7.61-7.78,11.37l-7,10-7.12-10c-2.7-3.76-5.32-7.6-7.77-11.37l-.16.09c.08,4.08.16,9.24.16,13.9V62Z"/><path class="cls-1" d="M265.91,2.83h20.7c7.21,0,12.53.9,16.62,2.94,5.73,2.78,9.57,7.77,9.57,15.46,0,7.28-3.52,12.84-10.88,16L317.63,62H298.56L285.39,39.55h-2.62V62H265.91Zm21,25.19q4.67,0,6.63-1.23a5,5,0,0,0,2.37-4.66,5,5,0,0,0-2.86-4.91c-1.39-.65-3.36-1-7.2-1h-3.11V28Z"/><path class="cls-1" d="M320.76,2.83h20.71c7.2,0,12.52.9,16.61,2.94,5.73,2.78,9.58,7.77,9.58,15.46,0,7.28-3.52,12.84-10.89,16L372.49,62H353.42L340.24,39.55h-2.62V62H320.76ZM341.8,28q4.67,0,6.62-1.23a5,5,0,0,0,2.38-4.66,5,5,0,0,0-2.87-4.91c-1.39-.65-3.35-1-7.2-1h-3.11V28Z"/><path class="cls-1" d="M434.58,2.83h17.68l5.73,21c1.39,5.07,2.78,10.38,4,15.29h.16c1.31-4.91,2.87-10.39,4.34-15.37l6.14-20.94H485l6,20.85c1.47,5.15,2.95,10.39,4.26,15.46h.16c1.39-5.23,2.86-10.55,4.34-15.7l5.89-20.61h17L504.56,62H486.72l-4.1-14.31c-1.47-5.24-2.86-10.23-4.17-15.38h-.16C476.89,37.59,475.42,42.9,474,48L469.86,62H452.42Z"/><path class="cls-1" d="M88.19,63.43a31,31,0,1,1,31-31,31,31,0,0,1-31,31m0-45.82A14.83,14.83,0,1,0,103,32.43,14.85,14.85,0,0,0,88.19,17.61"/><path class="cls-1" d="M227.59,63.43a31,31,0,1,1,31-31,31,31,0,0,1-31,31m0-45.82a14.83,14.83,0,1,0,14.84,14.82,14.84,14.84,0,0,0-14.84-14.82"/><path class="cls-1" d="M403.4,63.43a31,31,0,1,1,31-31,31,31,0,0,1-31,31m0-45.82a14.83,14.83,0,1,0,14.84,14.82A14.84,14.84,0,0,0,403.4,17.61"/><path class="cls-1" d="M19.85,17.06H1V2.83H55.53V17.06H36.7V62H19.85Z"/></svg>